<?xml version="1.0" ?><!DOCTYPE svg  PUBLIC '-//W3C//DTD SVG 1.1//EN'  'http://www.w3.org/Graphics/SVG/1.1/DTD/svg11.dtd'><svg height="1.6699in" style="shape-rendering:geometricPrecision; text-rendering:geometricPrecision; image-rendering:optimizeQuality; fill-rule:evenodd; clip-rule:evenodd" version="1.1" viewBox="0 0 360 360" width="1.6699in" xml:space="preserve" xmlns="http://www.w3.org/2000/svg" xmlns:xlink="http://www.w3.org/1999/xlink"><defs><style type="text/css">
   <![CDATA[
    .fil0 {fill:#C9CACA}
    .fil2 {fill:#FFF000}
    .fil3 {fill:#E62129}
    .fil1 {fill:#1D1819}
    .fil4 {fill:#FFFC58}
    .fil6 {fill:#FEFEFE;fill-opacity:0.501961}
    .fil5 {fill:#B6B6B7;fill-opacity:0.501961}
   ]]>
  </style></defs><g id="Layer_x0020_1"><circle class="fil0" cx="180" cy="180" r="180"/><path class="fil1" d="M350 180c0,94 -76,170 -170,170 -94,0 -170,-76 -170,-170l340 0z"/><path class="fil1" d="M180 10c94,0 170,76 170,170l-340 0c0,-94 76,-170 170,-170z"/><path class="fil2" d="M276 39c17,12 31,26 43,42l-278 0c12,-16 26,-30 43,-42l192 0z"/><path class="fil3" d="M284 45c11,9 22,19 30,30l-268 0c8,-11 19,-21 30,-30l208 0z"/><path class="fil2" d="M350 166c0,5 0,9 0,14 0,4 0,7 0,11l-340 0c0,-4 0,-7 0,-11 0,-5 0,-9 0,-14l340 0z"/><circle class="fil2" cx="180" cy="180" r="57"/><circle class="fil4" cx="180" cy="180" r="37"/><path class="fil5" d="M59 288c36,45 191,47 281,-78 -46,179 -241,142 -281,78z"/><path class="fil6" d="M28 140c0,0 3,-58 70,-101 67,-42 64,-7 48,8 -11,9 -88,9 -118,93z"/></g></svg>