<?xml version="1.0" ?><!DOCTYPE svg  PUBLIC '-//W3C//DTD SVG 1.1//EN'  'http://www.w3.org/Graphics/SVG/1.1/DTD/svg11.dtd'><svg height="1.6699in" style="shape-rendering:geometricPrecision; text-rendering:geometricPrecision; image-rendering:optimizeQuality; fill-rule:evenodd; clip-rule:evenodd" version="1.1" viewBox="0 0 581 581" width="1.6699in" xml:space="preserve" xmlns="http://www.w3.org/2000/svg" xmlns:xlink="http://www.w3.org/1999/xlink"><defs><style type="text/css">
   <![CDATA[
    .fil4 {fill:#FEFEFE}
    .fil0 {fill:#C9CACA}
    .fil3 {fill:#332C2B}
    .fil1 {fill:#1A63A3}
    .fil2 {fill:#FEE226}
    .fil6 {fill:#FEFEFE;fill-opacity:0.501961}
    .fil5 {fill:#B6B6B7;fill-opacity:0.501961}
   ]]>
  </style></defs><g id="Layer_x0020_1"><circle class="fil0" cx="291" cy="291" r="291"/><path class="fil1" d="M565 291c0,151 -123,274 -274,274 -152,0 -275,-123 -275,-274l549 0z"/><path class="fil1" d="M291 16c151,0 274,123 274,275l-549 0c0,-152 123,-275 275,-275z"/><path class="fil2" d="M291 92l55 56 90 -89c38,24 70,58 93,97l-88 87 55 55 -56 56 82 82c-24,38 -57,70 -97,93l-80 -81 -54 55 -56 -56 -81 81c-39,-23 -72,-55 -96,-94l82 -81 -55 -55 56 -56 -87 -88c22,-39 54,-72 93,-96l89 89 55 -55z"/><path class="fil3" d="M565 269c0,7 0,14 0,22 0,6 0,11 0,17l-549 0c0,-6 0,-11 0,-17 0,-8 0,-15 1,-22l548 0z"/><circle class="fil3" cx="291" cy="291" r="92"/><circle class="fil4" cx="291" cy="291" r="60"/><path class="fil5" d="M96 465c58,72 307,77 453,-126 -75,289 -390,230 -453,126z"/><path class="fil6" d="M45 226c0,0 5,-94 113,-162 108,-69 103,-12 77,11 -17,15 -142,16 -190,151z"/></g></svg>