<?xml version="1.0" ?><!DOCTYPE svg  PUBLIC '-//W3C//DTD SVG 1.1//EN'  'http://www.w3.org/Graphics/SVG/1.1/DTD/svg11.dtd'><svg height="1.6699in" style="shape-rendering:geometricPrecision; text-rendering:geometricPrecision; image-rendering:optimizeQuality; fill-rule:evenodd; clip-rule:evenodd" version="1.1" viewBox="0 0 641 641" width="1.6699in" xml:space="preserve" xmlns="http://www.w3.org/2000/svg" xmlns:xlink="http://www.w3.org/1999/xlink"><defs><style type="text/css">
   <![CDATA[
    .fil1 {fill:#FEFEFE}
    .fil5 {fill:#DCDDDD}
    .fil0 {fill:#C9CACA}
    .fil3 {fill:#332C2B}
    .fil7 {fill:#332C2B}
    .fil4 {fill:#BC353C}
    .fil2 {fill:#E9565C}
    .fil6 {fill:#FEFEFE;fill-opacity:0.501961}
   ]]>
  </style></defs><g id="Layer_x0020_1"><circle class="fil0" cx="320" cy="320" r="320"/><path class="fil1" d="M623 320c0,168 -135,303 -303,303 -167,0 -303,-135 -303,-303l606 0z"/><path class="fil1" d="M320 17c168,0 303,136 303,303l-606 0c0,-167 136,-303 303,-303z"/><path class="fil2" d="M18 296c5,-59 27,-114 61,-159 11,0 22,0 34,0 -64,60 -83,110 -95,159z"/><path class="fil3" d="M320 17c99,0 186,47 242,120l-483 0c55,-73 143,-120 241,-120z"/><path class="fil4" d="M320 17c19,0 37,2 54,5l-30 147 -24 0 -23 0 -31 -147c18,-3 36,-5 54,-5z"/><path class="fil5" d="M106 513c63,79 338,84 500,-140 -83,319 -430,254 -500,140z"/><path class="fil6" d="M47 256c0,0 -3,-89 94,-162 97,-74 97,-19 74,5 -15,15 -133,26 -168,157z"/><path class="fil7" d="M622 296c1,8 1,16 1,24 0,7 0,13 0,20l-605 0c-1,-7 -1,-13 -1,-20 0,-8 1,-16 1,-24l604 0z"/><circle class="fil7" cx="320" cy="320" r="101"/><circle class="fil1" cx="320" cy="320" r="67"/><path class="fil2" d="M622 296c-4,-59 -26,-114 -60,-159 -12,0 -23,0 -34,0 64,60 83,110 94,159z"/><path class="fil2" d="M18 296c5,-59 27,-114 61,-159 11,0 22,0 34,0 -64,60 -83,110 -95,159z"/><path class="fil2" d="M622 296c-4,-59 -26,-114 -60,-159 -12,0 -23,0 -34,0 64,60 83,110 94,159z"/></g></svg>